<svg width="140" height="95" viewBox="0 0 140 95" fill="none" xmlns="http://www.w3.org/2000/svg">
<path d="M138.827 12.3367H1.17349C1.16682 12.51 1.16016 12.6767 1.16016 12.85V82.0567C1.16016 88.5567 6.42682 93.83 12.9335 93.83H127.067C133.567 93.83 138.84 88.5567 138.84 82.0567V12.85C138.84 12.6767 138.833 12.51 138.827 12.3367ZM66.9535 78.89C66.9535 80.5633 65.6002 81.9167 63.9268 81.9167H41.8268C40.1535 81.9167 38.8002 80.5633 38.8002 78.89V70.0433C38.8002 68.37 40.1535 67.0167 41.8268 67.0167H63.9268C65.6002 67.0167 66.9535 68.37 66.9535 70.0433V78.89ZM101.2 78.89C101.2 80.5633 99.8468 81.9167 98.1735 81.9167H76.0735C74.4002 81.9167 73.0468 80.5633 73.0468 78.89V70.0433C73.0468 68.37 74.4002 67.0167 76.0735 67.0167H98.1735C99.8468 67.0167 101.2 68.37 101.2 70.0433V78.89ZM101.2 56.37C101.2 58.0433 99.8468 59.3967 98.1735 59.3967H41.8268C40.1535 59.3967 38.8002 58.0433 38.8002 56.37V47.5167C38.8002 45.85 40.1535 44.4967 41.8268 44.4967H98.1735C99.8468 44.4967 101.2 45.85 101.2 47.5167V56.37ZM101.2 33.85C101.2 35.5233 99.8468 36.8767 98.1735 36.8767H41.8268C40.1535 36.8767 38.8002 35.5233 38.8002 33.85V24.9967C38.8002 23.33 40.1535 21.97 41.8268 21.97H98.1735C99.8468 21.97 101.2 23.33 101.2 24.9967V33.85Z" stroke="#040408" stroke-linecap="round" stroke-linejoin="round"/>
<path d="M127.067 1.07666H12.9333C6.60001 1.07666 1.44001 6.07666 1.17334 12.3367H138.827C138.56 6.07666 133.393 1.07666 127.067 1.07666Z" stroke="#040408" stroke-linecap="round" stroke-linejoin="round"/>
<path d="M9.90625 6.70863C9.90625 6.03663 10.4516 5.49463 11.1202 5.49463C11.7889 5.49463 12.3303 6.03663 12.3303 6.70863C12.3303 7.3773 11.7889 7.91863 11.1202 7.91863C10.4516 7.91863 9.90625 7.3773 9.90625 6.70863Z" fill="white"/>
<path d="M9.90625 6.70863C9.90625 6.03663 10.4516 5.49463 11.1203 5.49463C11.7889 5.49463 12.3303 6.03663 12.3303 6.70863C12.3303 7.3773 11.7889 7.91863 11.1203 7.91863C10.4516 7.91863 9.90625 7.3773 9.90625 6.70863Z" stroke="#040408" stroke-linecap="round" stroke-linejoin="round"/>
<path d="M12.3303 6.70863C12.3303 7.3773 11.7889 7.91863 11.1203 7.91863C10.4516 7.91863 9.90625 7.3773 9.90625 6.70863C9.90625 6.03663 10.4516 5.49463 11.1203 5.49463C11.7889 5.49463 12.3303 6.03663 12.3303 6.70863Z" stroke="#040408" stroke-linecap="round" stroke-linejoin="round"/>
<path d="M16.0602 6.70863C16.0602 7.3773 15.5149 7.91863 14.8462 7.91863C14.1776 7.91863 13.6362 7.3773 13.6362 6.70863C13.6362 6.03663 14.1776 5.49463 14.8462 5.49463C15.5149 5.49463 16.0602 6.03663 16.0602 6.70863Z" stroke="#040408" stroke-linecap="round" stroke-linejoin="round"/>
<path d="M19.6139 6.70863C19.6139 7.3773 19.0726 7.91863 18.4039 7.91863C17.7353 7.91863 17.1899 7.3773 17.1899 6.70863C17.1899 6.03663 17.7353 5.49463 18.4039 5.49463C19.0726 5.49463 19.6139 6.03663 19.6139 6.70863Z" stroke="#040408" stroke-linecap="round" stroke-linejoin="round"/>
<path d="M127.067 1H12.9333C6.60001 1 1.44001 6 1.17334 12.26H138.827C138.56 6 133.393 1 127.067 1Z" stroke="#040408" stroke-linecap="round" stroke-linejoin="round"/>
<path d="M138.84 12.7733V81.98C138.84 88.48 133.567 93.7533 127.067 93.7533H12.9335C6.42682 93.7533 1.16016 88.48 1.16016 81.98V12.7733C1.16016 12.6 1.16682 12.4333 1.17349 12.26H138.827C138.833 12.4333 138.84 12.6 138.84 12.7733Z" fill="#3991FD"/>
<path d="M138.84 12.7733V81.98C138.84 88.48 133.567 93.7533 127.067 93.7533H12.9335C6.42682 93.7533 1.16016 88.48 1.16016 81.98V12.7733C1.16016 12.6 1.16682 12.4333 1.17349 12.26H138.827C138.833 12.4333 138.84 12.6 138.84 12.7733Z" stroke="#040408" stroke-linecap="round" stroke-linejoin="round"/>
<path d="M127.067 1H12.9333C6.60001 1 1.44001 6 1.17334 12.26H138.827C138.56 6 133.393 1 127.067 1Z" stroke="#040408" stroke-linecap="round" stroke-linejoin="round"/>
<path d="M52.522 60.1073L65.6226 68.5727L87.478 37.4407" stroke="white" stroke-width="12" stroke-linecap="round" stroke-linejoin="round"/>
<path d="M66.7848 44.2231L66.2932 44.1759C66.4666 42.3705 66.9426 40.6077 67.7024 38.9608L69.1543 35.8124L66.7848 44.2231ZM66.7848 44.2231L66.2932 44.1759L65.9619 47.6267C65.9609 47.6368 65.9583 47.6407 65.9569 47.6427C65.9544 47.6459 65.9498 47.6502 65.9427 47.6535C65.9356 47.6567 65.9294 47.6573 65.9256 47.657C65.9232 47.6568 65.9187 47.6563 65.9106 47.6505L51.6718 37.4586C51.6717 37.4585 51.6717 37.4585 51.6716 37.4584C51.6641 37.453 51.6611 37.4492 51.6603 37.4481C51.6593 37.4467 51.6588 37.4457 51.6584 37.4445C51.6574 37.4415 51.6562 37.4339 51.659 37.4233C51.6619 37.4127 51.6668 37.4069 51.6689 37.405C51.6697 37.4043 51.6705 37.4037 51.6719 37.4032C51.6731 37.4026 51.6775 37.4008 51.6868 37.4L51.6871 37.4M66.7848 44.2231L51.6871 37.4M51.6871 37.4L69.1218 35.7663M51.6871 37.4L69.1218 35.7663M69.1218 35.7663C69.1219 35.7663 69.122 35.7663 69.1221 35.7663M69.1218 35.7663L69.1221 35.7663M69.1221 35.7663C69.1321 35.7654 69.1363 35.7672 69.1385 35.7683C69.142 35.77 69.147 35.7736 69.1514 35.7799C69.1559 35.7861 69.1576 35.792 69.1581 35.7959C69.1583 35.7983 69.1586 35.803 69.1543 35.8124L69.1221 35.7663Z" fill="#1E233C" stroke="#1E233C"/>
<path d="M69.6084 36.0217L68.1564 39.1703C67.4202 40.766 66.9589 42.4741 66.7909 44.2237L66.4596 47.6745C66.4204 48.083 65.9532 48.2958 65.6197 48.0572L51.3806 37.865C50.98 37.578 51.1498 36.9478 51.6404 36.9021L69.0755 35.2685C69.484 35.2304 69.7803 35.6489 69.6084 36.0217Z" fill="#1E233C" stroke="#1E233C" stroke-linecap="round" stroke-linejoin="round"/>
</svg>
